<?xml version="1.0" encoding="utf-8"?>
<!-- Generator: Adobe Illustrator 17.0.0, SVG Export Plug-In . SVG Version: 6.00 Build 0)  -->
<!DOCTYPE svg PUBLIC "-//W3C//DTD SVG 1.1//EN" "http://www.w3.org/Graphics/SVG/1.1/DTD/svg11.dtd">
<svg version="1.1" id="Capa_1" xmlns="http://www.w3.org/2000/svg" xmlns:xlink="http://www.w3.org/1999/xlink" x="0px" y="0px"
	 width="203.5px" height="203.5px" viewBox="0 0 203.5 203.5" enable-background="new 0 0 203.5 203.5" xml:space="preserve">
<g>
	<path d="M73.196,176.939c0.401,0.178,0.82,0.263,1.232,0.263c1.161,0,2.269-0.671,2.772-1.8c0.682-1.53-0.007-3.324-1.537-4.005
		c-26.615-11.851-43.812-38.33-43.812-67.457c0-40.697,33.109-73.806,73.806-73.806c29.126,0,55.606,17.197,67.458,43.813
		c0.682,1.53,2.475,2.218,4.005,1.537c1.53-0.682,2.218-2.475,1.537-4.005c-12.826-28.801-41.48-47.411-73-47.411
		c-44.041,0-79.872,35.83-79.872,79.872C25.784,135.459,44.394,164.112,73.196,176.939z"/>
	<path d="M188.778,20.818c-9.109-9.109-24.055-11.245-42.71-6.296l2.566-3.025c1.084-1.278,0.927-3.192-0.351-4.275
		c-1.278-1.083-3.191-0.927-4.275,0.351l-9.405,11.086c-0.004,0.005-0.009,0.01-0.013,0.016l-0.015,0.017
		c-0.008,0.009-0.013,0.019-0.021,0.028c-0.064,0.077-0.122,0.156-0.178,0.238c-0.02,0.03-0.038,0.059-0.057,0.089
		c-0.043,0.069-0.083,0.139-0.12,0.211c-0.017,0.031-0.034,0.063-0.049,0.095c-0.044,0.092-0.083,0.186-0.118,0.282
		c-0.004,0.01-0.008,0.019-0.011,0.028c-0.037,0.107-0.067,0.216-0.091,0.327c-0.006,0.028-0.01,0.056-0.016,0.084
		c-0.017,0.085-0.03,0.171-0.039,0.258c-0.003,0.031-0.006,0.063-0.009,0.095c-0.007,0.09-0.009,0.179-0.008,0.27
		c0,0.025,0,0.05,0,0.075c0.009,0.23,0.044,0.461,0.108,0.691c0.003,0.009,0.003,0.017,0.006,0.026
		c0.007,0.024,0.017,0.046,0.025,0.07c0.017,0.053,0.031,0.106,0.051,0.159c0.01,0.026,0.022,0.049,0.032,0.074
		c0.016,0.038,0.032,0.075,0.049,0.112c0.033,0.074,0.069,0.145,0.108,0.214c0.017,0.03,0.033,0.061,0.051,0.09
		c0.052,0.087,0.108,0.171,0.168,0.252c0.007,0.01,0.013,0.02,0.021,0.03c0.073,0.095,0.149,0.185,0.232,0.27
		c0.008,0.009,0.017,0.016,0.025,0.024c0.071,0.073,0.147,0.14,0.225,0.205c0.024,0.02,0.048,0.038,0.073,0.057
		c0.067,0.052,0.136,0.101,0.206,0.147c0.028,0.018,0.056,0.036,0.084,0.054c0.084,0.051,0.171,0.097,0.259,0.14
		c0.014,0.007,0.028,0.015,0.043,0.022c0.104,0.048,0.211,0.088,0.32,0.125c0.009,0.003,0.016,0.007,0.024,0.009l13.892,4.431
		c0.306,0.098,0.617,0.144,0.923,0.144c1.285,0,2.478-0.823,2.889-2.112c0.509-1.596-0.372-3.303-1.968-3.811l-4.942-1.576
		c6.963-1.922,13.356-2.794,19.073-2.588c7.969,0.287,14.246,2.668,18.655,7.077c4.409,4.409,6.79,10.686,7.077,18.655
		c0.29,8.059-1.548,17.439-5.463,27.88c-2.013,5.368-4.516,10.853-7.458,16.39c-0.104,0.158-0.193,0.325-0.266,0.5
		c-9.026,16.84-22.128,34.139-38.059,50.071c-15.933,15.933-33.233,29.035-50.074,38.061c-0.172,0.072-0.336,0.16-0.491,0.261
		c-5.538,2.944-11.025,5.447-16.395,7.461c-10.44,3.915-19.821,5.754-27.88,5.463c-7.969-0.287-14.246-2.668-18.655-7.077
		c-4.403-4.402-6.783-10.667-7.076-18.619c-0.296-8.042,1.529-17.402,5.426-27.821c0.587-1.569-0.209-3.317-1.778-3.903
		c-1.567-0.587-3.316,0.209-3.903,1.779c-8.744,23.378-7.663,42.149,3.042,52.854c5.921,5.921,14.305,8.897,24.572,8.897
		c8.327,0,17.892-1.959,28.383-5.892c5.392-2.022,10.893-4.518,16.44-7.435c4.508,0.78,9.119,1.181,13.728,1.181
		c44.042,0,79.872-35.83,79.872-79.872c0-4.607-0.4-9.218-1.181-13.728c2.917-5.547,5.413-11.048,7.435-16.44
		C200.568,50.346,199.501,31.54,188.778,20.818z M179.463,103.939c0,40.697-33.109,73.806-73.806,73.806
		c-1.599,0-3.199-0.055-4.793-0.157c14.866-8.958,29.833-20.783,43.746-34.697s25.738-28.879,34.696-43.745
		C179.408,100.741,179.463,102.34,179.463,103.939z"/>
</g>
</svg>
