<svg version="1.1" id="Layer_1" xmlns="http://www.w3.org/2000/svg" xmlns:xlink="http://www.w3.org/1999/xlink" x="0px" y="0px"
	 width="612px" height="792px" viewBox="0 0 612 792" enable-background="new 0 0 612 792" xml:space="preserve">
			<path fill="#B53C3C" d="M306.213,583.511c23.558,0,46.459-4.597,68.294-13.626c44.161-18.223,78.472-52.616,96.777-96.777
				c18.387-44.161,18.387-92.673,0-136.916c-27.662-67.145-92.59-110.485-165.317-110.485c-23.558,0-46.459,4.597-68.294,13.626
				c-91.113,37.676-134.617,142.58-96.777,233.693C168.641,540.089,233.569,583.511,306.213,583.511z M246.866,261.496
				c18.961-7.88,38.908-11.82,59.182-11.82c62.876,0,119.104,37.512,143.318,95.71c15.842,38.251,15.842,80.36,0,118.529
				c-15.842,38.251-45.639,67.965-83.89,83.89c-18.961,7.88-38.908,11.82-59.182,11.82c-62.876,0-119.104-37.512-143.318-95.71
				C130.225,384.95,167.902,294.084,246.866,261.496z"/>
			<path fill="#2C2F33" d="M27.785,504.711c1.806,4.843,6.403,7.962,11.245,7.962c1.313,0,2.627-0.246,4.022-0.739
				c6.156-2.134,9.44-9.029,7.223-15.35c-35.378-98.829-11.82-206.933,61.563-281.958c50.646-51.877,118.611-81.017,191.173-81.837
				c72.398-0.821,141.102,26.595,192.979,77.241l-30.535,0.328c-6.649,0.082-11.82,5.418-11.82,12.066
				c0.082,6.485,5.418,11.82,11.984,11.82h0.082l59.429-0.739c3.119,0,6.156-1.313,8.455-3.612c2.134-2.298,3.365-5.335,3.365-8.455
				l-0.739-59.429c-0.082-6.649-5.417-12.066-12.066-11.82c-6.649,0.082-11.82,5.418-11.82,12.066l0.328,30.535
				c-56.474-55.078-130.924-84.875-209.888-84.054c-78.965,1.067-152.922,32.587-208.082,89.061
				c-39.482,40.467-66.488,91.031-77.98,146.027C5.458,397.591,9.316,453.162,27.785,504.711z"/>
		<path fill="#2C2F33" d="M500.505,594.51C395.849,701.712,223.473,703.6,116.271,599.107l30.535-0.328
			c6.649-0.082,11.82-5.417,11.82-12.066c-0.082-6.485-5.418-11.82-11.984-11.82h-0.082l-59.429,0.739
			c-6.649,0.082-11.82,5.417-11.82,12.066l0.739,59.429c0.082,6.485,5.418,11.82,11.984,11.82h0.082
			c6.649-0.082,11.82-5.418,11.82-12.066l-0.328-30.535c57.459,55.981,131.909,83.972,206.523,83.972
			c76.913,0,153.661-29.714,211.448-88.815c39.482-40.467,66.488-91.031,77.98-146.027c11.245-53.601,7.388-109.254-11.081-160.638
			c-2.134-6.156-9.029-9.44-15.35-7.223c-6.156,2.134-9.44,9.029-7.223,15.35C597.364,411.381,573.888,519.404,500.505,594.51z"/>
</svg>
