<?xml version="1.0" encoding="utf-8"?>
<!-- Generator: Adobe Illustrator 19.2.1, SVG Export Plug-In . SVG Version: 6.00 Build 0)  -->
<svg version="1.1" id="Layer_1" xmlns="http://www.w3.org/2000/svg" xmlns:xlink="http://www.w3.org/1999/xlink" x="0px" y="0px"
	 viewBox="0 0 1280 800" style="enable-background:new 0 0 1280 800;" xml:space="preserve">
<style type="text/css">
	.st0{fill:#B53C3C;}
	.st1{fill:#2C2F33;}
</style>
<g>
	<g>
		<g>
			<path class="st0" d="M622.6,618.1c28.7,0,56.6-5.6,83.2-16.6c53.8-22.2,95.6-64.1,117.9-117.9c22.4-53.8,22.4-112.9,0-166.8
				C790,235,710.9,182.2,622.3,182.2c-28.7,0-56.6,5.6-83.2,16.6c-111,45.9-164,173.7-117.9,284.7
				C455,565.2,534.1,618.1,622.6,618.1z M550.3,225.8c23.1-9.6,47.4-14.4,72.1-14.4c76.6,0,145.1,45.7,174.6,116.6
				c19.3,46.6,19.3,97.9,0,144.4c-19.3,46.6-55.6,82.8-102.2,102.2c-23.1,9.6-47.4,14.4-72.1,14.4c-76.6,0-145.1-45.7-174.6-116.6
				C408.2,376.2,454.1,265.5,550.3,225.8z"/>
			<path class="st1" d="M283.4,522.1c2.2,5.9,7.8,9.7,13.7,9.7c1.6,0,3.2-0.3,4.9-0.9c7.5-2.6,11.5-11,8.8-18.7
				c-43.1-120.4-14.4-252.1,75-343.5C447.5,105.5,530.3,70,618.7,69c88.2-1,171.9,32.4,235.1,94.1l-37.2,0.4
				c-8.1,0.1-14.4,6.6-14.4,14.7c0.1,7.9,6.6,14.4,14.6,14.4h0.1l72.4-0.9c3.8,0,7.5-1.6,10.3-4.4c2.6-2.8,4.1-6.5,4.1-10.3
				l-0.9-72.4c-0.1-8.1-6.6-14.7-14.7-14.4c-8.1,0.1-14.4,6.6-14.4,14.7l0.4,37.2C805.3,75,714.6,38.7,618.4,39.7
				c-96.2,1.3-186.3,39.7-253.5,108.5c-48.1,49.3-81,110.9-95,177.9C256.2,391.6,260.9,459.3,283.4,522.1z"/>
		</g>
		<path class="st1" d="M859.3,631.5c-127.5,130.6-337.5,132.9-468.1,5.6l37.2-0.4c8.1-0.1,14.4-6.6,14.4-14.7
			c-0.1-7.9-6.6-14.4-14.6-14.4h-0.1l-72.4,0.9c-8.1,0.1-14.4,6.6-14.4,14.7l0.9,72.4c0.1,7.9,6.6,14.4,14.6,14.4h0.1
			c8.1-0.1,14.4-6.6,14.4-14.7l-0.4-37.2c70,68.2,160.7,102.3,251.6,102.3c93.7,0,187.2-36.2,257.6-108.2
			c48.1-49.3,81-110.9,95-177.9c13.7-65.3,9-133.1-13.5-195.7c-2.6-7.5-11-11.5-18.7-8.8c-7.5,2.6-11.5,11-8.8,18.7
			C977.3,408.4,948.7,540,859.3,631.5z"/>
	</g>
</g>
</svg>
