<?xml version="1.0" encoding="utf-8"?>
<!-- Generator: Adobe Illustrator 19.2.1, SVG Export Plug-In . SVG Version: 6.00 Build 0)  -->
<svg version="1.1" id="Layer_1" xmlns="http://www.w3.org/2000/svg" xmlns:xlink="http://www.w3.org/1999/xlink" x="0px" y="0px"
	 viewBox="0 0 512 512" style="enable-background:new 0 0 512 512;" xml:space="preserve">
<style type="text/css">
	.st0{fill:#892B2B;}
	.st1{fill:#662222;}
	.st2{fill:#FFFFFF;}
</style>
<g>
	<g>
		<path class="st0" d="M183,392l176.2-16l69-191.7l74.9,138.8c5.8-21.4,8.9-43.9,8.9-67.1C512,114.6,397.4,0,256,0S0,114.6,0,256
			c0,133.6,102.4,243.3,233,255L160.8,416L183,392z"/>
		<path class="st1" d="M503.1,323.1l-74.9-138.8l-69,191.7L183,392l-22.2,24L233,511c7.6,0.7,15.2,1,23,1
			C374.2,512,473.6,432,503.1,323.1z"/>
	</g>
	<g>
		<path class="st1" d="M396.6,196.8c0,0-268.1-193.9-263.4,147.6C126.1,366.7,145.3,93.2,396.6,196.8z"/>
		<path class="st2" d="M305.6,73.7C204.9,46.3,101,105.8,73.7,206.4S105.8,411,206.4,438.3c100.7,27.4,204.5-32.1,231.9-132.8
			C465.7,204.9,406.2,101,305.6,73.7z M227.6,360.4c-57.7-15.7-91.7-75.1-76-132.8s75.1-91.7,132.8-76s91.7,75.1,76,132.8
			S285.3,376.1,227.6,360.4z"/>
	</g>
	<rect x="337" y="392.4" transform="matrix(0.5 0.866 -0.866 0.5 543.4067 -97.1638)" class="st2" width="37.7" height="59.3"/>
</g>
</svg>
