<?xml version="1.0" encoding="utf-8"?>
<!-- Generator: Adobe Illustrator 19.2.1, SVG Export Plug-In . SVG Version: 6.00 Build 0)  -->
<svg version="1.1" id="Capa_1" xmlns="http://www.w3.org/2000/svg" xmlns:xlink="http://www.w3.org/1999/xlink" x="0px" y="0px"
	 viewBox="0 0 58 58" style="enable-background:new 0 0 58 58;" xml:space="preserve">
<style type="text/css">
	.st0{fill:#8E2626;}
	.st1{fill:#FFFFFF;}
</style>
<circle class="st0" cx="29" cy="29" r="29"/>
<g>
	<path class="st1" d="M28.4,7c-12.1,0-22,9.8-22,22c0,12.1,9.8,22,22,22c12.1,0,22-9.8,22-22C50.4,16.9,40.5,7,28.4,7z M38.3,17.9
		c2.3-1.3,5.1-0.5,6.4,1.7c1.3,2.2,0.5,5.1-1.7,6.4c-2.3,1.3-5.1,0.5-6.4-1.7C35.2,22,36,19.2,38.3,17.9z M18.5,40.1
		c-2.3,1.3-5.1,0.5-6.4-1.7c-1.3-2.3-0.5-5.1,1.7-6.4c2.3-1.3,5.1-0.5,6.4,1.7C21.5,36,20.8,38.8,18.5,40.1z M20.2,24.3
		c-1.3,2.3-4.2,3-6.4,1.7c-2.3-1.3-3-4.2-1.7-6.4c1.3-2.3,4.2-3,6.4-1.7C20.8,19.2,21.5,22,20.2,24.3z M28.4,47.8
		c-2.6,0-4.7-2.1-4.7-4.7c0-2.6,2.1-4.7,4.7-4.7c2.6,0,4.7,2.1,4.7,4.7C33.1,45.7,31,47.8,28.4,47.8z M28.4,19.6
		c-2.6,0-4.7-2.1-4.7-4.7c0-2.6,2.1-4.7,4.7-4.7c2.6,0,4.7,2.1,4.7,4.7C33.1,17.5,31,19.6,28.4,19.6z M44.7,38.4
		c-1.3,2.2-4.2,3-6.4,1.7c-2.3-1.3-3-4.2-1.7-6.4c1.3-2.3,4.2-3,6.4-1.7C45.2,33.3,46,36.2,44.7,38.4z M56.6,44.7V51H40.5
		c2.9-1.6,5.4-3.7,7.4-6.3H56.6z"/>
</g>
</svg>
