<?xml version="1.0" encoding="utf-8"?>
<!-- Generator: Adobe Illustrator 17.0.0, SVG Export Plug-In . SVG Version: 6.00 Build 0)  -->
<!DOCTYPE svg PUBLIC "-//W3C//DTD SVG 1.1//EN" "http://www.w3.org/Graphics/SVG/1.1/DTD/svg11.dtd">
<svg version="1.1" id="Capa_1" xmlns="http://www.w3.org/2000/svg" xmlns:xlink="http://www.w3.org/1999/xlink" x="0px" y="0px"
	 width="612px" height="792px" viewBox="0 0 612 792" enable-background="new 0 0 612 792" xml:space="preserve">
<g>
	<path fill="#AA2B2B" d="M516.834,300.95c-1.852-2.06-4.491-3.234-7.261-3.234H102.428c-2.77,0-5.409,1.176-7.261,3.234
		c-1.852,2.059-2.742,4.807-2.451,7.561l40.814,384.753c0.526,4.966,4.716,8.736,9.711,8.736h325.518
		c4.995,0,9.185-3.77,9.711-8.736l40.814-384.753C519.576,305.757,518.686,303.009,516.834,300.95z M233.882,682.468L214.51,317.247
		h81.724v365.221H233.882z M113.285,317.247h81.668l19.37,365.221h-62.298L113.285,317.247z M459.974,682.468h-62.296l8.624-162.588
		c0.286-5.387-3.849-9.983-9.235-10.27c-5.403-0.298-9.985,3.849-10.27,9.235l-8.679,163.623h-62.352V317.247h81.723l-8.624,162.588
		c-0.286,5.387,3.849,9.983,9.235,10.27c0.177,0.009,0.352,0.014,0.526,0.014c5.156,0,9.468-4.039,9.744-9.249l8.679-163.623h81.667
		L459.974,682.468z"/>
	<path fill="#AA2B2B" d="M306,181.149c-5.393,0-9.766,4.373-9.766,9.766c0,5.393,4.373,9.766,9.766,9.766
		c13.935,0,26.543,7.722,32.904,20.152c1.729,3.378,5.153,5.319,8.702,5.319c1.497,0,3.017-0.345,4.442-1.074
		c4.802-2.457,6.702-8.341,4.245-13.142C346.574,192.945,327.303,181.149,306,181.149z"/>
	<path fill="#AA2B2B" d="M193.135,263.969c-2.457,4.802-0.556,10.685,4.245,13.142c1.425,0.729,2.944,1.074,4.442,1.074
		c3.55,0,6.973-1.941,8.702-5.319c6.361-12.43,18.968-20.152,32.903-20.152c5.393,0,9.766-4.373,9.766-9.766
		c0-5.393-4.373-9.766-9.766-9.766C222.123,233.183,202.853,244.979,193.135,263.969z"/>
	<path fill="#AA2B2B" d="M101.738,278.159c0.234,0.017,0.467,0.025,0.699,0.025c5.08,0,9.368-3.932,9.732-9.077
		c0.134-1.896,0.418-3.804,0.845-5.673c3.1-13.586,13.434-24.158,26.967-27.593c2.801-0.711,5.142-2.625,6.396-5.229
		c1.254-2.603,1.29-5.628,0.1-8.261c-5.751-12.723-3.929-27.394,4.759-38.288c8.688-10.895,22.587-15.938,36.269-13.161
		c2.828,0.574,5.772-0.134,8.032-1.935c2.259-1.802,3.604-4.511,3.675-7.4c0.337-13.959,8.345-26.385,20.9-32.432
		c12.556-6.047,27.264-4.56,38.388,3.879c2.302,1.746,5.258,2.382,8.076,1.741c2.816-0.643,5.205-2.5,6.521-5.073
		c6.36-12.428,18.967-20.149,32.902-20.149c13.935,0,26.543,7.722,32.904,20.152c1.316,2.573,3.705,4.43,6.521,5.073
		c2.815,0.642,5.775,0.005,8.076-1.741c11.123-8.44,25.832-9.926,38.387-3.879c12.555,6.047,20.563,18.473,20.9,32.432
		c0.07,2.888,1.415,5.598,3.675,7.4c2.259,1.801,5.202,2.511,8.031,1.935c13.684-2.776,27.582,2.266,36.269,13.161
		c8.688,10.895,10.512,25.566,4.761,38.288c-1.19,2.633-1.154,5.658,0.1,8.261c1.254,2.603,3.595,4.517,6.396,5.228
		c13.533,3.435,23.867,14.008,26.967,27.593c0.427,1.87,0.711,3.777,0.845,5.672c0.38,5.379,5.052,9.433,10.431,9.052
		c5.38-0.38,9.433-5.051,9.052-10.431c-0.204-2.891-0.637-5.798-1.286-8.641c-3.947-17.294-15.555-31.393-31.264-38.658
		c4.115-16.812,0.328-34.677-10.731-48.546c-11.06-13.87-27.616-21.532-44.942-21.264c-3.586-16.932-14.749-31.386-30.732-39.083
		c-15.981-7.697-34.242-7.413-49.717,0.341C340.068,98.18,323.739,90,306,90c-17.739,0-34.068,8.179-44.645,21.878
		c-15.474-7.754-33.736-8.037-49.718-0.341c-15.981,7.697-27.144,22.15-30.73,39.083c-17.337-0.275-33.883,7.396-44.942,21.264
		s-14.846,31.734-10.731,48.546c-15.709,7.265-27.317,21.364-31.264,38.658c-0.65,2.843-1.082,5.75-1.286,8.641
		C92.305,273.109,96.357,277.779,101.738,278.159z"/>
</g>
</svg>
