<?xml version="1.0" encoding="utf-8"?>
<!-- Generator: Adobe Illustrator 17.0.0, SVG Export Plug-In . SVG Version: 6.00 Build 0)  -->
<!DOCTYPE svg PUBLIC "-//W3C//DTD SVG 1.1//EN" "http://www.w3.org/Graphics/SVG/1.1/DTD/svg11.dtd">
<svg version="1.1" id="Layer_1" xmlns="http://www.w3.org/2000/svg" xmlns:xlink="http://www.w3.org/1999/xlink" x="0px" y="0px"
	 width="21.981px" height="21.981px" viewBox="0 0 21.981 21.981" enable-background="new 0 0 21.981 21.981" xml:space="preserve">
<g id="calendar_10_">
	<path fill="#FFFFFF" d="M6.466,9.051H3.88v2.586h2.586V9.051z M10.345,9.051H7.759v2.586h2.586V9.051z M14.223,9.051h-2.585v2.586
		h2.586L14.223,9.051L14.223,9.051z M6.466,14.222H3.88v2.586h2.586V14.222z M10.345,14.222H7.759v2.586h2.586V14.222z
		 M14.223,14.222h-2.585v2.586h2.586L14.223,14.222L14.223,14.222z M16.809,0h-2.586v3.879h2.586V0z M7.759,0H5.173v3.879h2.586V0z
		 M18.102,2.586v2.586H12.93V2.586H9.051v2.586H3.879V2.586H0v19.395h21.981V2.586H18.102z M19.395,19.394H2.587V6.464h16.809
		L19.395,19.394L19.395,19.394z M18.102,9.051h-2.586v2.586h2.586V9.051z M18.102,14.222h-2.586v2.586h2.586V14.222z"/>
</g>
</svg>
