<?xml version="1.0" encoding="utf-8"?>
<!-- Generator: Adobe Illustrator 17.0.0, SVG Export Plug-In . SVG Version: 6.00 Build 0)  -->
<!DOCTYPE svg PUBLIC "-//W3C//DTD SVG 1.1//EN" "http://www.w3.org/Graphics/SVG/1.1/DTD/svg11.dtd">
<svg version="1.1" id="Layer_1" xmlns="http://www.w3.org/2000/svg" xmlns:xlink="http://www.w3.org/1999/xlink" x="0px" y="0px"
	 width="20.687px" height="20.687px" viewBox="0 0 20.687 20.687" enable-background="new 0 0 20.687 20.687" xml:space="preserve">
<g id="time_10_">
	<path fill="#FFFFFF" d="M6.639,1.576c0.123-0.052,0.247-0.102,0.372-0.149C6.285,0.556,5.189,0,3.965,0C1.775,0,0,1.774,0,3.965
		c0,1.225,0.556,2.32,1.428,3.046C1.475,6.886,1.525,6.764,1.576,6.64c0.48-1.134,1.165-2.151,2.039-3.025
		C4.488,2.741,5.506,2.054,6.639,1.576z M16.723,0c-1.225,0-2.319,0.556-3.047,1.427c0.125,0.047,0.249,0.097,0.372,0.149
		c1.134,0.479,2.15,1.165,3.025,2.038c0.872,0.874,1.558,1.892,2.039,3.025c0.052,0.124,0.102,0.246,0.148,0.371
		c0.872-0.726,1.427-1.821,1.427-3.046C20.687,1.774,18.911,0,16.723,0z M18.274,10.344c0-4.38-3.551-7.931-7.931-7.931
		c-4.379,0-7.931,3.551-7.931,7.931c0,2.381,1.051,4.519,2.714,5.972l-2.714,2.712l1.659,1.659l3.081-3.083
		c0.976,0.43,2.056,0.67,3.191,0.67s2.215-0.24,3.191-0.67l3.082,3.083l1.659-1.659l-2.715-2.712
		C17.224,14.863,18.274,12.725,18.274,10.344z M10.344,15.964c-3.085,0-5.586-2.501-5.586-5.586s2.501-5.585,5.586-5.585
		s5.585,2.5,5.585,5.585C15.929,13.462,13.429,15.964,10.344,15.964z M11.136,6.434H9.551v4.702l4.047,1.679l0.62-1.459
		l-3.082-1.308V6.434z"/>
</g>
</svg>
