<?xml version="1.0" encoding="utf-8"?>
<!-- Generator: Adobe Illustrator 17.0.0, SVG Export Plug-In . SVG Version: 6.00 Build 0)  -->
<!DOCTYPE svg PUBLIC "-//W3C//DTD SVG 1.1//EN" "http://www.w3.org/Graphics/SVG/1.1/DTD/svg11.dtd">
<svg version="1.1" id="Layer_1" xmlns="http://www.w3.org/2000/svg" xmlns:xlink="http://www.w3.org/1999/xlink" x="0px" y="0px"
	 width="19.394px" height="19.394px" viewBox="0 0 19.394 19.394" enable-background="new 0 0 19.394 19.394" xml:space="preserve">
<g id="film_10_">
	<path fill="#FFFFFF" d="M0,0v19.394h19.394V0H0z M3.879,18.102H1.293v-1.293h2.586V18.102z M3.879,15.516H1.293v-1.293h2.586
		V15.516z M3.879,12.93H1.293v-1.293h2.586V12.93z M3.879,10.344H1.293V9.051h2.586V10.344z M3.879,7.758H1.293V6.465h2.586V7.758z
		 M3.879,5.172H1.293V3.879h2.586V5.172z M3.879,2.586H1.293V1.293h2.586V2.586z M14.222,18.102H5.171v-7.758h9.051V18.102z
		 M14.222,9.051H5.171V1.293h9.051V9.051z M18.101,18.102h-2.586v-1.293h2.586V18.102z M18.101,15.516h-2.586v-1.293h2.586V15.516z
		 M18.101,12.93h-2.586v-1.293h2.586V12.93z M18.101,10.344h-2.586V9.051h2.586V10.344z M18.101,7.758h-2.586V6.465h2.586V7.758z
		 M18.101,5.172h-2.586V3.879h2.586V5.172z M18.101,2.586h-2.586V1.293h2.586V2.586z"/>
</g>
</svg>
