<?xml version="1.0" encoding="utf-8"?>
<!-- Generator: Adobe Illustrator 17.0.0, SVG Export Plug-In . SVG Version: 6.00 Build 0)  -->
<!DOCTYPE svg PUBLIC "-//W3C//DTD SVG 1.1//EN" "http://www.w3.org/Graphics/SVG/1.1/DTD/svg11.dtd">
<svg version="1.1" id="Layer_1" xmlns="http://www.w3.org/2000/svg" xmlns:xlink="http://www.w3.org/1999/xlink" x="0px" y="0px"
	 width="21.303px" height="20.899px" viewBox="0 0 21.303 20.899" enable-background="new 0 0 21.303 20.899" xml:space="preserve">
<g id="video_10_">
	<path fill="#FFFFFF" d="M21.303,4.372L20.601,1.26c-0.197-0.872-1.039-1.418-1.881-1.219L1.871,4.018
		C1.155,4.187,0.02,4.651,0.011,5.38v14.223c-0.068,0.896,0.152,1.297,1.387,1.296c1.199-0.003,18.007-0.003,18.007-0.003
		c0.875,0,1.293-0.397,1.293-1.293V7.966L7.543,7.62L21.303,4.372z M16.915,1.727l2.725,1.818l-2.101,0.496l-2.725-1.817
		L16.915,1.727z M12.677,2.728l2.725,1.818l-2.101,0.496l-2.725-1.817L12.677,2.728z M8.54,3.705l2.725,1.818L9.164,6.018L6.439,4.2
		L8.54,3.705z M4.313,4.703l2.724,1.818L4.936,7.016L2.212,5.199L4.313,4.703z M19.405,9.259v10.344H1.304V9.259H19.405z
		 M9.062,11.845v5.172l3.879-2.586L9.062,11.845z"/>
</g>
</svg>
