<?xml version="1.0" encoding="utf-8"?>
<!-- Generator: Adobe Illustrator 19.1.0, SVG Export Plug-In . SVG Version: 6.00 Build 0)  -->
<svg version="1.1" id="Capa_1" xmlns="http://www.w3.org/2000/svg" xmlns:xlink="http://www.w3.org/1999/xlink" x="0px" y="0px"
	 viewBox="-279 81 400 400" style="enable-background:new -279 81 400 400;" xml:space="preserve">
<style type="text/css">
	.st0{fill:#FFFFFF;}
</style>
<g>
	<g>
		<path class="st0" d="M-79,81c-110.3,0-200,89.7-200,200c0,110.3,89.7,200,200,200c110.3,0,200-89.7,200-200
			C121,170.7,31.3,81-79,81z M-79,454.8c-95.8,0-173.8-78-173.8-173.8c0-95.8,78-173.8,173.8-173.8c95.8,0,173.8,78,173.8,173.8
			C94.8,376.8,16.8,454.8-79,454.8z"/>
		<path class="st0" d="M0.5,267.9h-66.4v-66.4c0-7.2-5.9-13.1-13.1-13.1s-13.1,5.9-13.1,13.1v66.4h-66.4c-7.2,0-13.1,5.9-13.1,13.1
			c0,7.2,5.9,13.1,13.1,13.1h66.4v66.4c0,7.2,5.9,13.1,13.1,13.1c7.2,0,13.1-5.9,13.1-13.1v-66.4H0.5c7.2,0,13.1-5.9,13.1-13.1
			C13.6,273.8,7.7,267.9,0.5,267.9z"/>
	</g>
</g>
</svg>
