<?xml version="1.0" encoding="utf-8"?>
<!-- Generator: Adobe Illustrator 17.0.0, SVG Export Plug-In . SVG Version: 6.00 Build 0)  -->
<!DOCTYPE svg PUBLIC "-//W3C//DTD SVG 1.1 Tiny//EN" "http://www.w3.org/Graphics/SVG/1.1/DTD/svg11-tiny.dtd">
<svg version="1.1" baseProfile="tiny" id="Layer_1" xmlns="http://www.w3.org/2000/svg" xmlns:xlink="http://www.w3.org/1999/xlink"
	 x="0px" y="0px" width="100px" height="100px" viewBox="0 0 100 100" overflow="scroll" xml:space="preserve">
<g id="magnifier_9_">
	<path fill="#FFFFFF" d="M86.127,96.053c0.705-1.065,1.115-2.339,1.115-3.71c0-3.716-3.012-6.728-6.728-6.728
		c-3.716,0-6.728,3.012-6.728,6.728c0,3.715,3.012,6.728,6.728,6.728c1.371,0,2.647-0.412,3.71-1.116l4.479,4.479l1.903-1.902
		L86.127,96.053z M80.515,97.166c-2.662,0-4.821-2.159-4.821-4.822c0-2.663,2.159-4.821,4.821-4.821
		c2.663,0,4.822,2.158,4.822,4.821C85.336,95.007,83.177,97.166,80.515,97.166z"/>
</g>
<circle fill="none" stroke="#FFFFFF" stroke-miterlimit="10" cx="82.197" cy="94.025" r="21.126"/>
</svg>
