<?xml version="1.0" encoding="utf-8"?>
<!-- Generator: Adobe Illustrator 17.0.0, SVG Export Plug-In . SVG Version: 6.00 Build 0)  -->
<!DOCTYPE svg PUBLIC "-//W3C//DTD SVG 1.1//EN" "http://www.w3.org/Graphics/SVG/1.1/DTD/svg11.dtd">
<svg version="1.1" id="Layer_1" xmlns="http://www.w3.org/2000/svg" xmlns:xlink="http://www.w3.org/1999/xlink" x="0px" y="0px"
	 width="22.277px" height="22.276px" viewBox="0 0 22.277 22.276" enable-background="new 0 0 22.277 22.276" xml:space="preserve">
<g id="magnifier_22_">
	<path fill="#FFFFFF" d="M16.345,13.825c0.934-1.41,1.477-3.097,1.477-4.914C17.822,3.989,13.833,0,8.911,0C3.99,0,0,3.989,0,8.911
		c0,4.921,3.989,8.911,8.911,8.911c1.816,0,3.505-0.545,4.914-1.478l5.932,5.932l2.52-2.52L16.345,13.825z M8.911,15.299
		c-3.526,0-6.386-2.859-6.386-6.386s2.859-6.385,6.386-6.385s6.386,2.858,6.386,6.385C15.298,12.44,12.438,15.299,8.911,15.299z"/>
</g>
</svg>
