<?xml version="1.0" encoding="utf-8"?>
<!-- Generator: Adobe Illustrator 19.0.0, SVG Export Plug-In . SVG Version: 6.00 Build 0)  -->
<svg version="1.1" id="Layer_1" xmlns="http://www.w3.org/2000/svg" xmlns:xlink="http://www.w3.org/1999/xlink" x="0px" y="0px"
	 viewBox="0 0 179.7 150" style="enable-background:new 0 0 179.7 150;" xml:space="preserve">
<style type="text/css">
	.st0{fill:#434B60;}
	.st1{fill:#E7ECEC;}
	.st2{fill:#EABA1F;}
	.st3{fill:#C7C9C7;}
	.st4{fill:#FFFFFF;}
	.st5{fill:none;stroke:#434B60;stroke-width:2;stroke-linecap:round;stroke-miterlimit:10;}
</style>
<g id="XMLID_21_">
	<g id="XMLID_24_">
		<polygon id="XMLID_31_" class="st0" points="160.7,26.8 160.7,147.7 18.1,147.7 18.1,2 135.9,2 		"/>
	</g>
	<rect id="XMLID_23_" x="39.8" y="82.6" class="st1" width="96.1" height="65.1"/>
	<rect id="XMLID_22_" x="39.8" y="82.6" class="st2" width="96.1" height="37.3"/>
	<rect id="XMLID_20_" x="46" y="2" class="st3" width="80.6" height="49.6"/>
	<g id="XMLID_27_">
		<path id="XMLID_18_" class="st4" d="M55.3,98.1H77c1.7,0,3.1-1.4,3.1-3.1s-1.4-3.1-3.1-3.1H55.3c-1.7,0-3.1,1.4-3.1,3.1
			S53.6,98.1,55.3,98.1z"/>
		<path id="XMLID_17_" class="st4" d="M86.3,104.3h-31c-1.7,0-3.1,1.4-3.1,3.1s1.4,3.1,3.1,3.1h31c1.7,0,3.1-1.4,3.1-3.1
			S88,104.3,86.3,104.3z"/>
		<path id="XMLID_13_" class="st4" d="M97.8,105.2c-1.1-1.1-3.2-1.1-4.4,0c-0.6,0.6-0.9,1.4-0.9,2.2c0,0.8,0.3,1.6,0.9,2.2
			c0.6,0.6,1.4,0.9,2.2,0.9c0.8,0,1.6-0.3,2.2-0.9c0.6-0.6,0.9-1.4,0.9-2.2S98.4,105.8,97.8,105.2z"/>
	</g>
	<rect id="XMLID_11_" x="101.8" y="14.4" class="st5" width="12.4" height="24.8"/>
	<polygon id="XMLID_1_" class="st1" points="92.5,51.6 46,51.6 46,2 67.7,2 	"/>
</g>
</svg>
