<?xml version="1.0" encoding="utf-8"?>
<!-- Generator: Adobe Illustrator 19.0.0, SVG Export Plug-In . SVG Version: 6.00 Build 0)  -->
<svg version="1.1" id="Layer_1" xmlns="http://www.w3.org/2000/svg" xmlns:xlink="http://www.w3.org/1999/xlink" x="0px" y="0px"
	 viewBox="0 0 150 150" style="enable-background:new 0 0 150 150;" xml:space="preserve">
<style type="text/css">
	.st0{fill:#818181;}
	.st1{fill:#989898;}
	.st2{fill:#CDCCCC;}
	.st3{fill:#1A1A1A;}
	.st4{fill:#4E4E4E;}
	.st5{fill:#FFFFFF;}
	.st6{font-family:'MyriadPro-Bold';}
	.st7{font-size:58.9255px;}
	.st8{letter-spacing:3;}
</style>
<g>
	<g>
		<polygon id="XMLID_7_" class="st0" points="88.6,111 91.7,134.3 59.6,134.3 62.6,111 		"/>
		<path id="XMLID_6_" class="st1" d="M44.4,97.2L36.1,111H6.6c-2.3,0-4.1-1.8-4.1-4.1v-9.8L44.4,97.2L44.4,97.2z"/>
		<path id="XMLID_5_" class="st2" d="M148.7,97.2v9.8c0,2.3-1.8,4.1-4.1,4.1h-56h-26H36.1l8.4-13.8H148.7z"/>
		<path id="XMLID_4_" class="st3" d="M92.2,18.3L44.4,97.2H2.5V22.3c0-2.3,1.8-4.1,4.1-4.1H92.2z"/>
		<path id="XMLID_3_" class="st4" d="M148.7,22.3v74.8H44.4l47.7-78.9h52.5C146.9,18.3,148.7,20.1,148.7,22.3z"/>
		<rect id="XMLID_2_" x="47.3" y="130.9" class="st2" width="56.7" height="6.8"/>
	</g>
	<text id="XMLID_1_" transform="matrix(1 0 0 1 36.082 76.918)" class="st5 st6 st7 st8">HD</text>
</g>
</svg>
