<?xml version="1.0" encoding="utf-8"?>
<!-- Generator: Adobe Illustrator 19.0.0, SVG Export Plug-In . SVG Version: 6.00 Build 0)  -->
<svg version="1.1" id="Layer_1" xmlns="http://www.w3.org/2000/svg" xmlns:xlink="http://www.w3.org/1999/xlink" x="0px" y="0px"
	 viewBox="0 0 150 150" style="enable-background:new 0 0 150 150;" xml:space="preserve">
<style type="text/css">
	.st0{fill:#F8981E;}
	.st1{fill:#FFF0B5;}
	.st2{fill:#FEDA46;}
	.st3{fill:#B02768;}
	.st4{fill:#E9378C;}
	.st5{fill:#51422F;}
</style>
<g id="XMLID_12_">
	<path id="XMLID_443_" class="st0" d="M93.1,6.1L81.8,20.4c29.1,23.4,47.8,59.3,47.8,99.5c6.5,0,12.6,0,18.2,0
		C147.8,73.9,126.5,32.9,93.1,6.1z"/>
	<path id="XMLID_444_" class="st1" d="M74.9,106.2c-11.3,0-20.5-9.2-20.5-20.5s9.2-20.5,20.5-20.5V29C51.1,58.8,2.2,120,2.2,120
		h72.7v-0.1V106.2z M36.2,110.8c-3.8,0-6.8-3.1-6.8-6.8c0-3.8,3.1-6.8,6.8-6.8c3.8,0,6.8,3.1,6.8,6.8
		C43.1,107.7,40,110.8,36.2,110.8z"/>
	<path id="XMLID_447_" class="st2" d="M81.8,20.4c0,0-6.8,8.6-6.8,8.6v36.2c11.3,0,20.5,9.2,20.5,20.5s-9.2,20.5-20.5,20.5v13.7v0.1
		v13.6c0,5,4.1,9.1,9.1,9.1c5,0,9.1-4.1,9.1-9.1v-13.7c12.6,0,25,0,36.4,0C129.6,79.6,110.9,43.8,81.8,20.4z M109.1,97.1
		c3.8,0,6.8,3.1,6.8,6.8c0,3.8-3.1,6.8-6.8,6.8s-6.8-3.1-6.8-6.8C102.3,100.2,105.3,97.1,109.1,97.1z M86.3,56.2
		c-3.8,0-6.8-3.1-6.8-6.8c0-3.8,3.1-6.8,6.8-6.8s6.8,3.1,6.8,6.8C93.1,53.1,90.1,56.2,86.3,56.2z"/>
	<path id="XMLID_451_" class="st3" d="M95.4,85.8c0-11.3-9.2-20.5-20.5-20.5v41C86.3,106.2,95.4,97.1,95.4,85.8z"/>
	<path id="XMLID_452_" class="st4" d="M54.4,85.8c0,11.3,9.2,20.5,20.5,20.5v-41C63.6,65.3,54.4,74.4,54.4,85.8z"/>
	<circle id="XMLID_453_" class="st5" cx="86.3" cy="49.3" r="6.8"/>
	<circle id="XMLID_454_" class="st5" cx="36.2" cy="104" r="6.8"/>
	<circle id="XMLID_455_" class="st5" cx="109.1" cy="104" r="6.8"/>
</g>
</svg>
